<svg id="Layer_1" data-name="Layer 1" xmlns="http://www.w3.org/2000/svg" viewBox="0 0 52.7 53.41"><title>I</title><path d="M26,53.41A26.7,26.7,0,1,1,52.7,26.7,26.73,26.73,0,0,1,26,53.41ZM26,4A22.7,22.7,0,1,0,48.7,26.7,22.73,22.73,0,0,0,26,4Z" style="fill:#231f20"/><path d="M15.53,21.75a10.5,10.5,0,0,1,3.7-8.24,10.17,10.17,0,0,1,7-2.3q4.79,0,7.41,2.3a8.06,8.06,0,0,1,2.83,6.33,7.14,7.14,0,0,1-2.62,5.56L29.69,29a6.53,6.53,0,0,0-2,5.17H23.81q0-4.21,1.53-6.33a28.48,28.48,0,0,1,4.14-4.22A4.7,4.7,0,0,0,31.22,20a5.09,5.09,0,0,0-1.53-4A5.43,5.43,0,0,0,26,14.85,4.77,4.77,0,0,0,22.72,16q-2.18,1.92-2.18,5.75h-5ZM28.61,39.58A2.62,2.62,0,1,0,26,42.2,2.62,2.62,0,0,0,28.61,39.58Z" style="fill:#231f20"/></svg>