<?xml version="1.0" encoding="utf-8"?>
<!-- Generator: Adobe Illustrator 19.2.1, SVG Export Plug-In . SVG Version: 6.00 Build 0)  -->
<svg version="1.1" id="Layer_1" xmlns="http://www.w3.org/2000/svg" xmlns:xlink="http://www.w3.org/1999/xlink" x="0px" y="0px"
	 viewBox="0 0 71.7 71.7" style="enable-background:new 0 0 71.7 71.7;" xml:space="preserve">
<style type="text/css">
	.st0{fill:#231F20;}
</style>
<title>I</title>
<g>
	<path class="st0" d="M35.9,0C16.1,0,0,16.1,0,35.9c0,19.8,16.1,35.9,35.9,35.9c19.8,0,35.8-16.1,35.9-35.9C71.7,16.1,55.7,0,35.9,0
		z M35.9,67.7C18.3,67.7,4,53.5,4,35.9S18.3,4,35.9,4c17.6,0,31.9,14.3,31.9,31.9C67.7,53.5,53.5,67.7,35.9,67.7z"/>
	<path class="st0" d="M45.6,18.5H26.1v19.8h-8.8v16h2v-14h15.5v14h2v-16v-3.4l15.5-6.2v25.6h2V25.7l-8.8,3.5V18.5z M34.9,33.5v4.8
		h-6.8V20.5h15.5V30L34.9,33.5z"/>
</g>
</svg>
