<?xml version="1.0" encoding="utf-8"?>
<!-- Generator: Adobe Illustrator 20.0.0, SVG Export Plug-In . SVG Version: 6.00 Build 0)  -->
<svg version="1.1" id="Layer_1" xmlns="http://www.w3.org/2000/svg" xmlns:xlink="http://www.w3.org/1999/xlink" x="0px" y="0px"
	 viewBox="0 0 71.7 71.7" style="enable-background:new 0 0 71.7 71.7;" xml:space="preserve">
<style type="text/css">
	.st0{fill:#231F20;}
</style>
<title>I</title>
<g>
	<path class="st0" d="M53.9,23.7c0-3.2-2.6-5.9-5.9-5.9c-1.6,0-3,0.6-4.1,1.6c-2.4-1.2-5.2-1.9-8.1-1.9c-10.1,0-18.3,8.2-18.3,18.3
		s8.2,18.3,18.3,18.3s18.3-8.2,18.3-18.3c0-2.9-0.7-5.6-1.9-8.1C53.2,26.7,53.9,25.3,53.9,23.7z M35.9,52.1c-9,0-16.3-7.3-16.3-16.3
		s7.3-16.3,16.3-16.3c2.5,0,4.8,0.6,6.9,1.5c-0.4,0.8-0.6,1.7-0.6,2.6c0,3.2,2.6,5.9,5.9,5.9c0.9,0,1.8-0.2,2.6-0.6
		c1,2.1,1.5,4.4,1.5,6.9C52.1,44.9,44.9,52.1,35.9,52.1z"/>
</g>
</svg>
