<?xml version="1.0" encoding="utf-8"?>
<!-- Generator: Adobe Illustrator 20.0.0, SVG Export Plug-In . SVG Version: 6.00 Build 0)  -->
<svg version="1.1" id="Layer_1" xmlns="http://www.w3.org/2000/svg" xmlns:xlink="http://www.w3.org/1999/xlink" x="0px" y="0px"
	 viewBox="0 0 71.7 71.7" style="enable-background:new 0 0 71.7 71.7;" xml:space="preserve">
<style type="text/css">
	.st0{fill:#231F20;}
</style>
<title>I</title>
<polygon class="st0" points="64.3,35.9 52.1,28.8 52.1,33.3 35.4,33.3 35.4,38.4 52.1,38.4 52.1,42.9 "/>
<path class="st0" d="M45.3,56.2H25.5c-2.6,0-4.7-2.1-4.7-4.7l0,0V20.2c0-2.6,2.1-4.7,4.7-4.7l0,0h19.8c2.6,0,4.7,2.1,4.7,4.6l0,0
	v10.6h-3.4V20.2c0-0.7-0.6-1.3-1.3-1.3H25.5c-0.7,0-1.3,0.6-1.3,1.3v31.3c0,0.7,0.6,1.3,1.3,1.3h19.8c0.7,0,1.3-0.6,1.3-1.3V41.4H50
	v10.1C50,54.1,47.9,56.2,45.3,56.2L45.3,56.2z"/>
</svg>
