<?xml version="1.0" encoding="utf-8"?>
<!-- Generator: Adobe Illustrator 19.2.1, SVG Export Plug-In . SVG Version: 6.00 Build 0)  -->
<svg version="1.1" id="Layer_1" xmlns="http://www.w3.org/2000/svg" xmlns:xlink="http://www.w3.org/1999/xlink" x="0px" y="0px"
	 viewBox="0 0 71.7 71.7" style="enable-background:new 0 0 71.7 71.7;" xml:space="preserve">
<style type="text/css">
	.st0{fill:#231F20;}
</style>
<title>I</title>
<path class="st0" d="M35.9,71.7C16.1,71.7,0,55.7,0,35.9S16.1,0,35.9,0s35.9,16.1,35.9,35.9l0,0C71.7,55.7,55.7,71.7,35.9,71.7z
	 M35.9,4C18.3,4,4,18.3,4,35.9s14.3,31.9,31.9,31.9s31.9-14.3,31.9-31.9C67.7,18.3,53.4,4,35.9,4z"/>
<polygon class="st0" points="64.3,35.9 52.1,28.8 52.1,33.3 35.4,33.3 35.4,38.4 52.1,38.4 52.1,42.9 "/>
<path class="st0" d="M45.3,56.2H25.5c-2.6,0-4.7-2.1-4.7-4.7l0,0V20.2c0-2.6,2.1-4.7,4.7-4.7l0,0h19.8c2.6,0,4.7,2.1,4.7,4.6
	c0,0,0,0,0,0v10.6h-3.4V20.2c0-0.7-0.6-1.3-1.3-1.3H25.5c-0.7,0-1.3,0.6-1.3,1.3v31.3c0,0.7,0.6,1.3,1.3,1.3h19.8
	c0.7,0,1.3-0.6,1.3-1.3V41.4H50v10.1C50,54.1,47.9,56.2,45.3,56.2C45.3,56.2,45.3,56.2,45.3,56.2z"/>
</svg>
