<?xml version="1.0" encoding="utf-8"?>
<!-- Generator: Adobe Illustrator 20.0.0, SVG Export Plug-In . SVG Version: 6.00 Build 0)  -->
<svg version="1.1" id="Layer_1" xmlns="http://www.w3.org/2000/svg" xmlns:xlink="http://www.w3.org/1999/xlink" x="0px" y="0px"
	 viewBox="0 0 71.7 71.7" style="enable-background:new 0 0 71.7 71.7;" xml:space="preserve">
<style type="text/css">
	.st0{fill:#231F20;}
</style>
<title>I</title>
<path class="st0" d="M32,19.9l-7.3,7.4h-8.1c-1.4,0-2.5,1.1-2.5,2.5v0.9l0,0v11.4c0,1.4,1.1,2.5,2.5,2.5h8.1L32,52
	c0.5,0.5,1.1,0.8,1.8,0.8c1.4,0,2.5-1.1,2.5-2.5v-8.8l0,0l0,0V21.7c0-0.7-0.3-1.3-0.7-1.8C34.5,19,32.9,19,32,19.9z M33.2,49.1
	l-7.4-7.4H17v-1.4l0,0v-10h8.8l7.4-7.4v7.5l0,0V49.1z"/>
<polygon class="st0" points="55.2,26.1 48.9,32.4 42.5,26.1 40.4,28.2 46.7,34.6 40.4,40.9 42.5,43 48.9,36.7 55.2,43 57.3,40.9 
	51,34.6 57.3,28.2 "/>
</svg>
