<?xml version="1.0" encoding="utf-8"?>
<!-- Generator: Adobe Illustrator 19.2.1, SVG Export Plug-In . SVG Version: 6.00 Build 0)  -->
<svg version="1.1" id="Layer_1" xmlns="http://www.w3.org/2000/svg" xmlns:xlink="http://www.w3.org/1999/xlink" x="0px" y="0px"
	 viewBox="0 0 71.7 71.7" style="enable-background:new 0 0 71.7 71.7;" xml:space="preserve">
<style type="text/css">
	.st0{fill:#231F20;}
</style>
<title>I</title>
<g>
	<path class="st0" d="M35.9,0C16.1,0,0,16.1,0,35.9s16.1,35.9,35.9,35.9c19.8,0,35.8-16.1,35.9-35.9C71.7,16.1,55.7,0,35.9,0z
		 M35.9,67.7C18.3,67.7,4,53.5,4,35.9C4,18.3,18.3,4,35.9,4c17.6,0,31.8,14.3,31.9,31.9C67.7,53.5,53.5,67.7,35.9,67.7z"/>
	<path class="st0" d="M32,19.8l-7.3,7.4h-8.1c-1.4,0-2.5,1.1-2.5,2.5v0.9v9.6V42c0,1.4,1.1,2.5,2.5,2.5h8.1l7.3,7.4
		c0.5,0.5,1.1,0.7,1.8,0.7c0,0,0,0,0,0c1.4,0,2.5-1.1,2.5-2.5v-8.8h0V21.6c0-0.7-0.3-1.3-0.7-1.8C34.5,18.8,32.9,18.8,32,19.8z
		 M25.9,41.6H17v-1.4v-9.6v-0.4h8.8l7.4-7.4v18.6h0V49L25.9,41.6z"/>
	<path class="st0" d="M45.3,35.8c-0.2-3-1.7-5.7-4.1-7.5l-1.7,2.5c1.6,1.2,2.6,3,2.8,5c-0.1,1.8-1,3.5-2.4,4.7l1.9,2.3
		C43.9,41.1,45.2,38.6,45.3,35.8z"/>
	<path class="st0" d="M50.9,35.8c0-5.2-1.8-8.6-6.2-11.7L43,26.5c3.7,2.6,4.9,5,4.9,9.3c0,3.7-1.6,6.6-5.5,9.6l1.8,2.4
		C47.4,45.3,50.9,41.7,50.9,35.8z"/>
	<path class="st0" d="M47.5,19.4l-1.6,2.5c2,1.3,3.8,3.1,5.1,5.1c4.8,7.8,2.5,18-5.3,22.9l1.6,2.6c2.4-1.5,4.5-3.6,6.1-6
		C59.1,37.4,56.5,25.2,47.5,19.4z"/>
</g>
</svg>
