<?xml version="1.0" encoding="utf-8"?>
<!-- Generator: Adobe Illustrator 20.0.0, SVG Export Plug-In . SVG Version: 6.00 Build 0)  -->
<svg version="1.1" id="Layer_1" xmlns="http://www.w3.org/2000/svg" xmlns:xlink="http://www.w3.org/1999/xlink" x="0px" y="0px"
	 viewBox="0 0 71.7 71.7" style="enable-background:new 0 0 71.7 71.7;" xml:space="preserve">
<style type="text/css">
	.st0{fill:#231F20;}
</style>
<title>I</title>
<path class="st0" d="M35.9,71.7C16.1,71.7,0,55.7,0,35.9S16.1,0,35.9,0s35.9,16.1,35.9,35.9l0,0C71.7,55.7,55.7,71.7,35.9,71.7z
	 M35.9,4C18.3,4,4,18.3,4,35.9s14.3,31.9,31.9,31.9s31.9-14.3,31.9-31.9C67.7,18.3,53.4,4,35.9,4z"/>
<path class="st0" d="M35.9,24.9c-3.7,0-6.8-3-6.8-6.8s3-6.8,6.8-6.8s6.8,3,6.8,6.8C42.6,21.9,39.6,24.9,35.9,24.9z M35.9,13
	c-2.9,0-5.2,2.3-5.2,5.1s2.3,5.2,5.1,5.2c2.9,0,5.2-2.3,5.2-5.1c0,0,0,0,0,0C41,15.3,38.7,13,35.9,13L35.9,13z"/>
<path class="st0" d="M46,35.6h-1.4v-2.5c0-3-2-5.4-4.4-5.4h-8.6c-2.4,0-4.4,2.4-4.4,5.4v2.5h-1.4v-2.5c0-3.8,2.6-6.8,5.8-6.8h8.6
	c3.2,0,5.8,3,5.8,6.8L46,35.6L46,35.6z"/>
<path class="st0" d="M35.9,60.6c-8.8,0-17.7-2.1-17.7-6.2c0-1.8,1.4-4.1,7.9-5.4l0.4,2c-4.6,0.9-6.2,2.3-6.2,3.3
	c0,1.7,6.1,4.1,15.7,4.1s15.7-2.4,15.7-4.1c0-1-1.6-2.5-6.2-3.3l0.4-2c6.5,1.2,7.9,3.6,7.9,5.4C53.6,58.5,44.7,60.6,35.9,60.6z"/>
<path class="st0" d="M41.9,55.1h-12V43.8c-2.7-0.3-4.1-2.2-4.1-5.7v-2.5h1.4V38c0,3.9,1.8,4.4,3.4,4.4h0.7v11.3h9.3V42.4h0.7
	c1.6,0,3.4-0.5,3.4-4.4v-2.5H46V38c0,3.5-1.4,5.5-4.1,5.7L41.9,55.1L41.9,55.1z"/>
</svg>
